<?xml version="1.0" encoding="utf-8"?>
<!-- Generator: Adobe Illustrator 16.0.0, SVG Export Plug-In . SVG Version: 6.00 Build 0)  -->
<!DOCTYPE svg PUBLIC "-//W3C//DTD SVG 1.1//EN" "http://www.w3.org/Graphics/SVG/1.1/DTD/svg11.dtd">
<svg version="1.1" id="Layer_1" xmlns="http://www.w3.org/2000/svg" xmlns:xlink="http://www.w3.org/1999/xlink" x="0px" y="0px"
	 width="88px" height="88px" viewBox="0 0 88 88" enable-background="new 0 0 88 88" xml:space="preserve">
<path fill-rule="evenodd" clip-rule="evenodd" fill="#FFFFFF" d="M44,2c23.195,0,42,18.804,42,42c0,23.195-18.805,42-42,42
	C20.804,86,2,67.195,2,44C2,20.804,20.804,2,44,2z"/>
<g>
	<circle fill="#676767" cx="31.021" cy="4.056" r="2"/>
	<circle fill="#676767" cx="19.312" cy="10.021" r="2.001"/>
	<circle fill="#676767" cx="10.021" cy="19.312" r="2.001"/>
	<path fill="#676767" d="M4.673,29.117c1.051,0.342,1.626,1.471,1.284,2.521c-0.341,1.05-1.469,1.625-2.52,1.286
		c-1.051-0.344-1.627-1.472-1.284-2.521C2.494,29.352,3.622,28.776,4.673,29.117z"/>
</g>
<path fill="#4BC6DF" d="M43.999,88c-24.262,0-44-19.738-44-44c0-1.104,0.896-2,2-2s2,0.896,2,2c0,22.056,17.944,40,40,40
	s40-17.944,40-40s-17.944-40-40-40c-1.104,0-2-0.896-2-2s0.896-2,2-2c24.262,0,44,19.738,44,44S68.261,88,43.999,88z"/>
</svg>
