<?xml version="1.0" encoding="utf-8"?>
<!-- Generator: Adobe Illustrator 16.0.0, SVG Export Plug-In . SVG Version: 6.00 Build 0)  -->
<!DOCTYPE svg PUBLIC "-//W3C//DTD SVG 1.1//EN" "http://www.w3.org/Graphics/SVG/1.1/DTD/svg11.dtd">
<svg version="1.1" id="Layer_1" xmlns="http://www.w3.org/2000/svg" xmlns:xlink="http://www.w3.org/1999/xlink" x="0px" y="0px"
	 width="88px" height="88px" viewBox="0 0 88 88" enable-background="new 0 0 88 88" xml:space="preserve">
<path fill-rule="evenodd" clip-rule="evenodd" fill="#FFFFFF" d="M44,2c23.195,0,42,18.804,42,42c0,23.195-18.805,42-42,42
	C20.804,86,2,67.195,2,44C2,20.804,20.804,2,44,2z"/>
<g>
	<circle fill="#DA1D1D" cx="43.999" cy="2" r="2"/>
	<circle fill="#DA1D1D" cx="43.999" cy="86" r="2"/>
	<circle fill="#DA1D1D" cx="31.021" cy="4.056" r="2"/>
	<circle fill="#DA1D1D" cx="56.978" cy="83.944" r="2"/>
	<circle fill="#DA1D1D" cx="19.312" cy="10.021" r="2.001"/>
	<path fill="#DA1D1D" d="M70.304,76.803c0.65,0.895,0.452,2.145-0.441,2.793c-0.894,0.65-2.145,0.451-2.794-0.441
		c-0.649-0.895-0.451-2.145,0.443-2.795C68.404,75.713,69.654,75.91,70.304,76.803z"/>
	<circle fill="#DA1D1D" cx="10.021" cy="19.312" r="2.001"/>
	<path fill="#DA1D1D" d="M79.153,67.068c0.895,0.648,1.093,1.9,0.443,2.793c-0.649,0.895-1.9,1.092-2.794,0.443
		c-0.894-0.65-1.092-1.9-0.442-2.795C77.01,66.619,78.259,66.42,79.153,67.068z"/>
	<path fill="#DA1D1D" d="M4.673,29.117c1.051,0.342,1.626,1.471,1.284,2.521c-0.341,1.05-1.469,1.625-2.52,1.286
		c-1.051-0.344-1.627-1.472-1.284-2.521C2.494,29.352,3.622,28.776,4.673,29.117z"/>
	<path fill="#DA1D1D" d="M84.562,55.076c1.051,0.34,1.627,1.471,1.285,2.52c-0.342,1.051-1.471,1.625-2.521,1.285
		c-1.051-0.344-1.626-1.471-1.284-2.521C82.384,55.311,83.511,54.734,84.562,55.076z"/>
	<circle fill="#DA1D1D" cx="2" cy="43.999" r="2.001"/>
	<circle fill="#DA1D1D" cx="86" cy="43.999" r="2"/>
	<path fill="#DA1D1D" d="M3.437,55.074c1.051-0.34,2.18,0.234,2.52,1.285c0.342,1.049-0.232,2.178-1.281,2.521
		c-1.053,0.34-2.183-0.234-2.521-1.285C1.812,56.545,2.386,55.416,3.437,55.074z"/>
	<circle fill="#DA1D1D" cx="83.944" cy="31.02" r="1.999"/>
	<path fill="#DA1D1D" d="M8.845,67.066c0.894-0.648,2.145-0.451,2.793,0.443c0.649,0.893,0.451,2.143-0.439,2.793
		c-0.896,0.648-2.148,0.453-2.795-0.441C7.753,68.967,7.95,67.717,8.845,67.066z"/>
	<circle fill="#DA1D1D" cx="77.978" cy="19.311" r="1.999"/>
	<path fill="#DA1D1D" d="M17.694,76.801c0.648-0.893,1.899-1.092,2.793-0.441c0.893,0.648,1.091,1.898,0.445,2.793
		c-0.653,0.893-1.904,1.094-2.795,0.443C17.242,78.945,17.044,77.695,17.694,76.801z"/>
	<circle fill="#DA1D1D" cx="68.686" cy="10.019" r="2"/>
	<path fill="#DA1D1D" d="M29.118,83.324c0.341-1.049,1.469-1.625,2.52-1.283c1.05,0.342,1.624,1.469,1.287,2.518
		c-0.346,1.053-1.474,1.629-2.521,1.285C29.351,85.504,28.776,84.375,29.118,83.324z"/>
	<circle fill="#DA1D1D" cx="56.977" cy="4.053" r="1.999"/>
</g>
</svg>
