<svg width="390" height="32" viewBox="0 0 390 32" fill="none" xmlns="http://www.w3.org/2000/svg">
<path d="M0.0996094 11.3H1.49961V32H0.0996094V11.3ZM2.19961 6.9H3.59961V32H2.19961V6.9ZM4.39961 8.3H5.79961V32H4.39961V8.3ZM6.49961 6.3H7.89961V32H6.49961V6.3ZM8.59961 7.8H9.99961V32H8.59961V7.8ZM10.7996 9.3H12.1996V32H10.7996V9.3ZM12.8996 10.8H14.2996V32H12.8996V10.8ZM14.9996 12.7H16.3996V32H14.9996V12.7ZM17.1996 14.3H18.5996V32H17.1996V14.3ZM19.2996 16.8H20.6996V32H19.2996V16.8ZM21.3996 16.6H22.7996V32H21.3996V16.6ZM23.5996 11.5H24.9996V32H23.5996V11.5ZM25.6996 12.8H27.0996V32H25.6996V12.8ZM27.7996 14H29.1996V32H27.7996V14ZM29.9996 14.6H31.3996V32H29.9996V14.6ZM32.0996 14.8H33.4996V32H32.0996V14.8ZM34.2996 16.1H35.6996V32H34.2996V16.1ZM36.3996 17.4H37.7996V32H36.3996V17.4ZM38.4996 18.8H39.8996V32H38.4996V18.8ZM40.6996 18.9H42.0996V32H40.6996V18.9ZM42.7996 18.4H44.1996V32H42.7996V18.4ZM44.8996 19.7H46.2996V32H44.8996V19.7ZM47.0996 21.1H48.4996V32H47.0996V21.1ZM49.1996 22H50.5996V32H49.1996V22ZM51.2996 9.3H52.6996V32H51.2996V9.3ZM53.4996 11.4H54.8996V32H53.4996V11.4ZM55.5996 12H56.9996V32H55.5996V12ZM57.6996 10.9H59.0996V32H57.6996V10.9ZM59.8996 7.4H61.2996V32H59.8996V7.4ZM61.9996 8.4H63.3996V32H61.9996V8.4ZM64.0996 9.6H65.4996V32H64.0996V9.6ZM66.2996 10.9H67.6996V32H66.2996V10.9ZM68.3996 12.4H69.7996V32H68.3996V12.4ZM70.4996 13H71.8996V32H70.4996V13ZM72.6996 4.7H74.0996V32H72.6996V4.7ZM74.7996 5.6H76.1996V32H74.7996V5.6ZM76.8996 4.9H78.2996V32H76.8996V4.9ZM79.0996 6.8H80.4996V32H79.0996V6.8ZM81.1996 8.1H82.5996V32H81.1996V8.1ZM83.2996 10.1H84.6996V32H83.2996V10.1ZM85.4996 8.4H86.8996V32H85.4996V8.4ZM87.5996 4.7H88.9996V32H87.5996V4.7ZM89.6996 4H91.0996V32H89.6996V4ZM91.8996 5.3H93.2996V32H91.8996V5.3ZM93.9996 3.2H95.3996V32H93.9996V3.2ZM96.0996 4.5H97.4996V32H96.0996V4.5ZM98.2996 4H99.6996V32H98.2996V4ZM100.4 5.6H101.8V32H100.4V5.6ZM102.5 6.9H103.9V32H102.5V6.9ZM104.7 9H106.1V32H104.7V9ZM106.8 10.4H108.2V32H106.8V10.4ZM108.9 13.3H110.3V32H108.9V13.3ZM111.1 15.3H112.5V32H111.1V15.3ZM113.2 13.6H114.6V32H113.2V13.6ZM115.3 6.1H116.7V32H115.3V6.1ZM117.5 8.4H118.9V32H117.5V8.4ZM119.6 10.2H121V32H119.6V10.2ZM121.7 11.4H123.1V32H121.7V11.4ZM123.9 12.1H125.3V32H123.9V12.1ZM126 12.5H127.4V32H126V12.5ZM128.1 14H129.5V32H128.1V14ZM130.3 5.2H131.7V32H130.3V5.2ZM132.4 5.5H133.8V32H132.4V5.5ZM134.5 6.9H135.9V32H134.5V6.9ZM136.7 8.4H138.1V32H136.7V8.4ZM138.8 10H140.2V32H138.8V10ZM140.9 9.4H142.3V32H140.9V9.4ZM143.1 10.9H144.5V32H143.1V10.9ZM145.2 10.5H146.6V32H145.2V10.5ZM147.3 11.6H148.7V32H147.3V11.6ZM149.5 12.7H150.9V32H149.5V12.7ZM151.6 14H153V32H151.6V14ZM153.7 14.8H155.1V32H153.7V14.8ZM155.9 16H157.3V32H155.9V16ZM158 15.4H159.4V32H158V15.4ZM160.1 14.5H161.5V32H160.1V14.5ZM162.3 15.8H163.7V32H162.3V15.8ZM164.4 17H165.8V32H164.4V17ZM166.5 18.6H167.9V32H166.5V18.6ZM168.7 20.4H170.1V32H168.7V20.4ZM170.8 12.8H172.2V32H170.8V12.8ZM172.9 14H174.3V32H172.9V14ZM175.1 13.3H176.5V32H175.1V13.3ZM177.2 14.6H178.6V32H177.2V14.6ZM179.4 15.9H180.8V32H179.4V15.9ZM181.5 16.9H182.9V32H181.5V16.9ZM183.6 3.9H185V32H183.6V3.9ZM185.8 7H187.2V32H185.8V7ZM187.9 6.4H189.3V32H187.9V6.4ZM190 7.9H191.4V32H190V7.9ZM192.2 9.3H193.6V32H192.2V9.3ZM194.3 5.4H195.7V32H194.3V5.4ZM196.4 7.7H197.8V32H196.4V7.7ZM198.6 10.4H200V32H198.6V10.4ZM200.7 11.9H202.1V32H200.7V11.9ZM202.8 13.3H204.2V32H202.8V13.3ZM205 14.6H206.4V32H205V14.6ZM207.1 14.5H208.5V32H207.1V14.5ZM209.2 16.2H210.6V32H209.2V16.2ZM211.4 15.9H212.8V32H211.4V15.9ZM213.5 6.9H214.9V32H213.5V6.9ZM215.6 7.7H217V32H215.6V7.7ZM217.8 8.9H219.2V32H217.8V8.9ZM219.9 9.6H221.3V32H219.9V9.6ZM222 11.3H223.4V32H222V11.3ZM224.2 11.7H225.6V32H224.2V11.7ZM226.3 12.7H227.7V32H226.3V12.7ZM228.4 14.2H229.8V32H228.4V14.2ZM230.6 13.1H232V32H230.6V13.1ZM232.7 14.5H234.1V32H232.7V14.5ZM234.8 11.2H236.2V32H234.8V11.2ZM237 12.7H238.4V32H237V12.7ZM239.1 13.9H240.5V32H239.1V13.9ZM241.2 11.2H242.6V32H241.2V11.2ZM243.4 12.5H244.8V32H243.4V12.5ZM245.5 13.3H246.9V32H245.5V13.3ZM247.6 9.9H249V32H247.6V9.9ZM249.8 11.7H251.2V32H249.8V11.7ZM251.9 7.4H253.3V32H251.9V7.4ZM254 7H255.4V32H254V7ZM256.2 8.3H257.6V32H256.2V8.3ZM258.3 9.6H259.7V32H258.3V9.6ZM260.4 9.7H261.8V32H260.4V9.7ZM262.6 5.4H264V32H262.6V5.4ZM264.7 1.3H266.1V32H264.7V1.3ZM266.8 4.8H268.2V32H266.8V4.8ZM269 6.2H270.4V32H269V6.2ZM271.1 7.2H272.5V32H271.1V7.2ZM273.2 9.3H274.6V32H273.2V9.3ZM275.4 1.3H276.8V32H275.4V1.3ZM277.5 2.4H278.9V32H277.5V2.4ZM279.6 6H281V32H279.6V6ZM281.8 8.5H283.2V32H281.8V8.5ZM283.9 6.8H285.3V32H283.9V6.8ZM286 8.5H287.4V32H286V8.5ZM288.2 9.2H289.6V32H288.2V9.2ZM290.3 10.7H291.7V32H290.3V10.7ZM292.4 11.9H293.8V32H292.4V11.9ZM294.6 13.2H296V32H294.6V13.2ZM296.7 15.1H298.1V32H296.7V15.1ZM298.8 14.2H300.2V32H298.8V14.2ZM301 13.8H302.4V32H301V13.8ZM303.1 14.7H304.5V32H303.1V14.7ZM305.2 15H306.6V32H305.2V15ZM307.4 3.9H308.8V32H307.4V3.9ZM309.5 5.1H310.9V32H309.5V5.1ZM311.6 7.1H313V32H311.6V7.1ZM313.8 8.2H315.2V32H313.8V8.2ZM315.9 9.3H317.3V32H315.9V9.3ZM318 9H319.4V32H318V9ZM320.2 1.7H321.6V32H320.2V1.7ZM322.3 3.2H323.7V32H322.3V3.2ZM324.5 4.5H325.9V32H324.5V4.5ZM326.6 7.2H328V32H326.6V7.2ZM328.7 0H330.1V32H328.7V0ZM330.9 2.5H332.3V32H330.9V2.5ZM333 3.6H334.4V32H333V3.6ZM335.1 4.7H336.5V32H335.1V4.7ZM337.3 5.3H338.7V32H337.3V5.3ZM339.4 3.5H340.8V32H339.4V3.5ZM341.5 4.8H342.9V32H341.5V4.8ZM343.7 6H345.1V32H343.7V6ZM345.8 8.6H347.2V32H345.8V8.6ZM347.9 8.2H349.3V32H347.9V8.2ZM350.1 9.4H351.5V32H350.1V9.4ZM352.2 11.9H353.6V32H352.2V11.9ZM354.3 13.1H355.7V32H354.3V13.1ZM356.5 9.7H357.9V32H356.5V9.7ZM358.6 11.2H360V32H358.6V11.2ZM360.7 11.6H362.1V32H360.7V11.6ZM362.9 12.7H364.3V32H362.9V12.7ZM365 13.9H366.4V32H365V13.9ZM367.1 14.8H368.5V32H367.1V14.8ZM369.3 15.1H370.7V32H369.3V15.1ZM371.4 16.3H372.8V32H371.4V16.3ZM373.5 17.8H374.9V32H373.5V17.8ZM375.7 19H377.1V32H375.7V19ZM377.8 20.4H379.2V32H377.8V20.4ZM379.9 14.2H381.3V32H379.9V14.2ZM382.1 6H383.5V32H382.1V6ZM384.2 7.5H385.6V32H384.2V7.5ZM386.3 7.8H387.7V32H386.3V7.8ZM388.5 9.9H389.9V32H388.5V9.9Z" fill="#DCDCDC"/>
</svg>
