<?xml version="1.0" encoding="utf-8"?>
<!-- Generator: Adobe Illustrator 16.0.0, SVG Export Plug-In . SVG Version: 6.00 Build 0)  -->
<!DOCTYPE svg PUBLIC "-//W3C//DTD SVG 1.1//EN" "http://www.w3.org/Graphics/SVG/1.1/DTD/svg11.dtd">
<svg version="1.1" id="Layer_1" xmlns="http://www.w3.org/2000/svg" xmlns:xlink="http://www.w3.org/1999/xlink" x="0px" y="0px"
	 width="88px" height="88px" viewBox="0 0 88 88" enable-background="new 0 0 88 88" xml:space="preserve">
<path fill-rule="evenodd" clip-rule="evenodd" fill="#FFFFFF" d="M44,2c23.195,0,42,18.804,42,42c0,23.195-18.805,42-42,42
	C20.804,86,2,67.195,2,44C2,20.804,20.804,2,44,2z"/>
<g>
	<circle fill="#676767" cx="44.126" cy="2" r="2"/>
	<circle fill="#676767" cx="43.872" cy="86" r="2"/>
	<circle fill="#676767" cx="44.126" cy="2" r="2"/>
	<circle fill="#676767" cx="43.872" cy="86" r="2"/>
	<circle fill="#676767" cx="31.142" cy="4.017" r="2"/>
	<circle fill="#676767" cx="56.856" cy="83.983" r="2"/>
	<circle fill="#676767" cx="31.142" cy="4.017" r="2"/>
	<circle fill="#676767" cx="56.856" cy="83.983" r="2"/>
	<circle fill="#676767" cx="19.416" cy="9.946" r="2"/>
	<circle fill="#676767" cx="68.583" cy="78.053" r="2"/>
	<circle fill="#676767" cx="19.416" cy="9.946" r="2"/>
	<circle fill="#676767" cx="68.583" cy="78.053" r="2"/>
	<circle fill="#676767" cx="10.095" cy="19.21" r="2.001"/>
	<circle fill="#676767" cx="77.903" cy="68.789" r="2"/>
	<circle fill="#676767" cx="10.095" cy="19.21" r="2.001"/>
	<circle fill="#676767" cx="77.903" cy="68.789" r="2"/>
	<circle fill="#676767" cx="4.095" cy="30.899" r="2.001"/>
	<circle fill="#676767" cx="83.904" cy="57.099" r="2"/>
	<circle fill="#676767" cx="4.095" cy="30.899" r="2.001"/>
	<circle fill="#676767" cx="83.904" cy="57.099" r="2"/>
	<circle fill="#676767" cx="2" cy="43.872" r="2.001"/>
	<circle fill="#676767" cx="85.999" cy="44.126" r="2"/>
	<circle fill="#676767" cx="2" cy="43.872" r="2.001"/>
	<circle fill="#676767" cx="85.999" cy="44.126" r="2"/>
	<path fill="#676767" d="M3.403,54.951c1.052-0.337,2.179,0.241,2.516,1.292c0.338,1.051-0.239,2.178-1.289,2.518
		c-1.054,0.336-2.182-0.241-2.518-1.292C1.774,56.417,2.352,55.29,3.403,54.951z"/>
	<circle fill="#676767" cx="83.983" cy="31.141" r="2"/>
	<path fill="#676767" d="M3.403,54.951c1.052-0.337,2.179,0.241,2.516,1.292c0.338,1.051-0.239,2.178-1.289,2.518
		c-1.054,0.336-2.182-0.241-2.518-1.292C1.774,56.417,2.352,55.29,3.403,54.951z"/>
	<circle fill="#676767" cx="83.983" cy="31.141" r="2"/>
	<path fill="#676767" d="M8.775,66.96c0.896-0.646,2.146-0.445,2.792,0.452c0.647,0.895,0.445,2.144-0.448,2.792
		c-0.898,0.646-2.15,0.446-2.793-0.45C7.677,68.857,7.878,67.606,8.775,66.96z"/>
	<circle fill="#676767" cx="78.052" cy="19.414" r="1.999"/>
	<path fill="#676767" d="M8.775,66.96c0.896-0.646,2.146-0.445,2.792,0.452c0.647,0.895,0.445,2.144-0.448,2.792
		c-0.898,0.646-2.15,0.446-2.793-0.45C7.677,68.857,7.878,67.606,8.775,66.96z"/>
	<circle fill="#676767" cx="78.052" cy="19.414" r="1.999"/>
	<path fill="#676767" d="M17.595,76.721c0.651-0.89,1.903-1.086,2.794-0.433c0.891,0.651,1.085,1.901,0.437,2.793
		c-0.656,0.891-1.908,1.088-2.796,0.435C17.136,78.864,16.942,77.612,17.595,76.721z"/>
	<circle fill="#676767" cx="68.788" cy="10.093" r="2"/>
	<path fill="#676767" d="M17.595,76.721c0.651-0.89,1.903-1.086,2.794-0.433c0.891,0.651,1.085,1.901,0.437,2.793
		c-0.656,0.891-1.908,1.088-2.796,0.435C17.136,78.864,16.942,77.612,17.595,76.721z"/>
	<circle fill="#676767" cx="68.788" cy="10.093" r="2"/>
	<path fill="#676767" d="M28.999,83.279c0.344-1.049,1.474-1.622,2.523-1.275c1.049,0.344,1.62,1.473,1.279,2.521
		c-0.349,1.051-1.479,1.625-2.525,1.277C29.225,85.458,28.654,84.329,28.999,83.279z"/>
	<circle fill="#676767" cx="57.098" cy="4.092" r="1.999"/>
	<path fill="#676767" d="M28.999,83.279c0.344-1.049,1.474-1.622,2.523-1.275c1.049,0.344,1.62,1.473,1.279,2.521
		c-0.349,1.051-1.479,1.625-2.525,1.277C29.225,85.458,28.654,84.329,28.999,83.279z"/>
	<circle fill="#676767" cx="57.098" cy="4.092" r="1.999"/>
</g>
</svg>
