<svg xmlns="http://www.w3.org/2000/svg" width="88" height="88" viewBox="0 0 88 88">
	<circle fill="#FFF" cx="44.5" cy="44.5" r="42.5"/>
	<g fill="#676767">
		<circle cx="44" cy="2" r="2"/>
		<circle cx="44" cy="86" r="2"/>
		<circle cx="31" cy="4" r="2"/>
		<circle cx="57" cy="84" r="2"/>
		<circle cx="57" cy="84" r="2"/>
		<circle cx="69" cy="78" r="2"/>
		<circle cx="78" cy="69" r="2"/>
		<circle cx="84" cy="57" r="2"/>
		<circle cx="19" cy="10" r="2"/>
		<circle cx="10" cy="19" r="2"/>
		<circle cx="2" cy="44" r="2"/>
		<circle cx="86" cy="44" r="2"/>
		<circle cx="84" cy="31" r="2"/>
		<circle cx="78" cy="19" r="2"/>
		<circle cx="69" cy="10" r="2"/>
		<circle cx="57" cy="4" r="2"/>
		<circle cx="31" cy="84" r="2"/>
		<circle cx="19" cy="78" r="2"/>
		<circle cx="10" cy="69" r="2"/>
		<circle cx="4" cy="57" r="2"/>
		<circle cx="4" cy="31" r="2"/>
	</g>
</svg>